<?xml version="1.0" encoding="UTF-8" standalone="no"?>
<!DOCTYPE svg PUBLIC "-//W3C//DTD SVG 1.1//EN"
 "http://www.w3.org/Graphics/SVG/1.1/DTD/svg11.dtd">
<!-- Generated by graphviz version 5.0.0 (20220707.1540)
 -->
<!-- Title: UmlClassDiagram Pages: 1 -->
<svg width="1880pt" height="1155pt"
 viewBox="0.00 0.00 1880.14 1155.00" xmlns="http://www.w3.org/2000/svg" xmlns:xlink="http://www.w3.org/1999/xlink">
<g id="graph0" class="graph" transform="scale(1 1) rotate(0) translate(4 1151)">
<title>UmlClassDiagram</title>
<polygon fill="white" stroke="transparent" points="-4,4 -4,-1151 1876.14,-1151 1876.14,4 -4,4"/>
<!-- 0 -->
<g id="node1" class="node">
<title>0</title>
<polygon fill="#f2f2f2" stroke="black" points="587.3,-762.7 587.3,-879.5 737.85,-879.5 737.85,-762.7 587.3,-762.7"/>
<text text-anchor="middle" x="662.58" y="-862.9" font-family="Times,serif" font-size="14.00">Constants</text>
<text text-anchor="middle" x="662.58" y="-846.1" font-family="Times,serif" font-size="14.00">contracts/Gas.sol</text>
<polyline fill="none" stroke="black" points="587.3,-837.9 737.85,-837.9 "/>
<text text-anchor="start" x="595.3" y="-821.3" font-family="Times,serif" font-size="14.00">Public:</text>
<text text-anchor="start" x="595.3" y="-804.5" font-family="Times,serif" font-size="14.00"> &#160;&#160;tradeFlag: uint256</text>
<text text-anchor="start" x="595.3" y="-787.7" font-family="Times,serif" font-size="14.00"> &#160;&#160;basicFlag: uint256</text>
<text text-anchor="start" x="595.3" y="-770.9" font-family="Times,serif" font-size="14.00"> &#160;&#160;dividendFlag: uint256</text>
</g>
<!-- 2 -->
<g id="node2" class="node">
<title>2</title>
<polygon fill="#f2f2f2" stroke="black" points="0,-996.1 0,-1146.5 115.16,-1146.5 115.16,-996.1 0,-996.1"/>
<text text-anchor="middle" x="57.58" y="-1129.9" font-family="Times,serif" font-size="14.00">&lt;&lt;Enum&gt;&gt;</text>
<text text-anchor="middle" x="57.58" y="-1113.1" font-family="Times,serif" font-size="14.00">PaymentType</text>
<text text-anchor="middle" x="57.58" y="-1096.3" font-family="Times,serif" font-size="14.00">contracts/Gas.sol</text>
<polyline fill="none" stroke="black" points="0,-1088.1 115.16,-1088.1 "/>
<text text-anchor="start" x="8" y="-1071.5" font-family="Times,serif" font-size="14.00">Unknown: 0</text>
<text text-anchor="start" x="8" y="-1054.7" font-family="Times,serif" font-size="14.00">BasicPayment: 1</text>
<text text-anchor="start" x="8" y="-1037.9" font-family="Times,serif" font-size="14.00">Refund: 2</text>
<text text-anchor="start" x="8" y="-1021.1" font-family="Times,serif" font-size="14.00">Dividend: 3</text>
<text text-anchor="start" x="8" y="-1004.3" font-family="Times,serif" font-size="14.00">GroupPayment: 4</text>
</g>
<!-- 1 -->
<g id="node6" class="node">
<title>1</title>
<polygon fill="#f2f2f2" stroke="black" points="177.87,-0.5 177.87,-646.1 843.29,-646.1 843.29,-0.5 177.87,-0.5"/>
<text text-anchor="middle" x="510.58" y="-629.5" font-family="Times,serif" font-size="14.00">GasContract</text>
<text text-anchor="middle" x="510.58" y="-612.7" font-family="Times,serif" font-size="14.00">contracts/Gas.sol</text>
<polyline fill="none" stroke="black" points="177.87,-604.5 843.29,-604.5 "/>
<text text-anchor="start" x="185.87" y="-587.9" font-family="Times,serif" font-size="14.00">Public:</text>
<text text-anchor="start" x="185.87" y="-571.1" font-family="Times,serif" font-size="14.00"> &#160;&#160;totalSupply: uint256</text>
<text text-anchor="start" x="185.87" y="-554.3" font-family="Times,serif" font-size="14.00"> &#160;&#160;paymentCounter: uint256</text>
<text text-anchor="start" x="185.87" y="-537.5" font-family="Times,serif" font-size="14.00"> &#160;&#160;balances: mapping(address=&gt;uint256)</text>
<text text-anchor="start" x="185.87" y="-520.7" font-family="Times,serif" font-size="14.00"> &#160;&#160;tradePercent: uint256</text>
<text text-anchor="start" x="185.87" y="-503.9" font-family="Times,serif" font-size="14.00"> &#160;&#160;contractOwner: address</text>
<text text-anchor="start" x="185.87" y="-487.1" font-family="Times,serif" font-size="14.00"> &#160;&#160;tradeMode: uint256</text>
<text text-anchor="start" x="185.87" y="-470.3" font-family="Times,serif" font-size="14.00"> &#160;&#160;whitelist: mapping(address=&gt;uint256)</text>
<text text-anchor="start" x="185.87" y="-453.5" font-family="Times,serif" font-size="14.00"> &#160;&#160;wasLastOdd: uint256</text>
<text text-anchor="start" x="185.87" y="-436.7" font-family="Times,serif" font-size="14.00"> &#160;&#160;isOddWhitelistUser: mapping(address=&gt;uint256)</text>
<text text-anchor="start" x="185.87" y="-419.9" font-family="Times,serif" font-size="14.00"> &#160;&#160;administrators: address[5]</text>
<text text-anchor="start" x="185.87" y="-403.1" font-family="Times,serif" font-size="14.00"> &#160;&#160;isReady: bool</text>
<text text-anchor="start" x="185.87" y="-386.3" font-family="Times,serif" font-size="14.00"> &#160;&#160;defaultPayment: PaymentType</text>
<text text-anchor="start" x="185.87" y="-369.5" font-family="Times,serif" font-size="14.00"> &#160;&#160;payments: mapping(address=&gt;Payment[])</text>
<text text-anchor="start" x="185.87" y="-352.7" font-family="Times,serif" font-size="14.00"> &#160;&#160;paymentHistory: History[]</text>
<text text-anchor="start" x="185.87" y="-335.9" font-family="Times,serif" font-size="14.00"> &#160;&#160;whiteListStruct: mapping(address=&gt;ImportantStruct)</text>
<polyline fill="none" stroke="black" points="177.87,-327.7 843.29,-327.7 "/>
<text text-anchor="start" x="185.87" y="-311.1" font-family="Times,serif" font-size="14.00">Public:</text>
<text text-anchor="start" x="185.87" y="-294.3" font-family="Times,serif" font-size="14.00"> &#160;&#160;&#160;&lt;&lt;payable&gt;&gt; getPaymentHistory(): (paymentHistory_: History[])</text>
<text text-anchor="start" x="185.87" y="-277.5" font-family="Times,serif" font-size="14.00"> &#160;&#160;&#160;&lt;&lt;event&gt;&gt; supplyChanged(address, uint256)</text>
<text text-anchor="start" x="185.87" y="-260.7" font-family="Times,serif" font-size="14.00"> &#160;&#160;&#160;&lt;&lt;event&gt;&gt; Transfer(recipient: address, amount: uint256)</text>
<text text-anchor="start" x="185.87" y="-243.9" font-family="Times,serif" font-size="14.00"> &#160;&#160;&#160;&lt;&lt;event&gt;&gt; PaymentUpdated(admin: address, ID: uint256, amount: uint256, recipient: string)</text>
<text text-anchor="start" x="185.87" y="-227.1" font-family="Times,serif" font-size="14.00"> &#160;&#160;&#160;&lt;&lt;event&gt;&gt; AddedToWhitelist(userAddress: address, tier: uint256)</text>
<text text-anchor="start" x="185.87" y="-210.3" font-family="Times,serif" font-size="14.00"> &#160;&#160;&#160;&lt;&lt;event&gt;&gt; WhiteListTransfer(address)</text>
<text text-anchor="start" x="185.87" y="-193.5" font-family="Times,serif" font-size="14.00"> &#160;&#160;&#160;&lt;&lt;modifier&gt;&gt; onlyAdminOrOwner()</text>
<text text-anchor="start" x="185.87" y="-176.7" font-family="Times,serif" font-size="14.00"> &#160;&#160;&#160;&lt;&lt;modifier&gt;&gt; checkIfWhiteListed(sender: address)</text>
<text text-anchor="start" x="185.87" y="-159.9" font-family="Times,serif" font-size="14.00"> &#160;&#160;&#160;constructor(_admins: address[], _totalSupply: uint256)</text>
<text text-anchor="start" x="185.87" y="-143.1" font-family="Times,serif" font-size="14.00"> &#160;&#160;&#160;checkForAdmin(_user: address): (admin_: bool)</text>
<text text-anchor="start" x="185.87" y="-126.3" font-family="Times,serif" font-size="14.00"> &#160;&#160;&#160;balanceOf(_user: address): (balance_: uint256)</text>
<text text-anchor="start" x="185.87" y="-109.5" font-family="Times,serif" font-size="14.00"> &#160;&#160;&#160;getTradingMode(): (mode_: bool)</text>
<text text-anchor="start" x="185.87" y="-92.7" font-family="Times,serif" font-size="14.00"> &#160;&#160;&#160;addHistory(_updateAddress: address, _tradeMode: bool): (status_: bool, tradeMode_: bool)</text>
<text text-anchor="start" x="185.87" y="-75.9" font-family="Times,serif" font-size="14.00"> &#160;&#160;&#160;getPayments(_user: address): (payments_: Payment[])</text>
<text text-anchor="start" x="185.87" y="-59.1" font-family="Times,serif" font-size="14.00"> &#160;&#160;&#160;transfer(_recipient: address, _amount: uint256, _name: string): (status_: bool)</text>
<text text-anchor="start" x="185.87" y="-42.3" font-family="Times,serif" font-size="14.00"> &#160;&#160;&#160;updatePayment(_user: address, _ID: uint256, _amount: uint256, _type: PaymentType) &lt;&lt;onlyAdminOrOwner&gt;&gt;</text>
<text text-anchor="start" x="185.87" y="-25.5" font-family="Times,serif" font-size="14.00"> &#160;&#160;&#160;addToWhitelist(_userAddrs: address, _tier: uint256) &lt;&lt;onlyAdminOrOwner&gt;&gt;</text>
<text text-anchor="start" x="185.87" y="-8.7" font-family="Times,serif" font-size="14.00"> &#160;&#160;&#160;whiteTransfer(_recipient: address, _amount: uint256, _struct: ImportantStruct) &lt;&lt;checkIfWhiteListed&gt;&gt;</text>
</g>
<!-- 2&#45;&gt;1 -->
<g id="edge2" class="edge">
<title>2&#45;&gt;1</title>
<path fill="none" stroke="black" d="M53.1,-995.77C47.01,-914.19 44.03,-781.81 94.58,-682.6 114.25,-643.99 140.1,-607.9 169.3,-574.63"/>
<polygon fill="black" stroke="black" points="169.62,-574.27 170.64,-567.13 177.62,-565.33 176.6,-572.46 169.62,-574.27"/>
</g>
<!-- 3 -->
<g id="node3" class="node">
<title>3</title>
<polygon fill="#f2f2f2" stroke="black" points="94.52,-729.1 94.52,-913.1 272.64,-913.1 272.64,-729.1 94.52,-729.1"/>
<text text-anchor="middle" x="183.58" y="-896.5" font-family="Times,serif" font-size="14.00">&lt;&lt;Struct&gt;&gt;</text>
<text text-anchor="middle" x="183.58" y="-879.7" font-family="Times,serif" font-size="14.00">Payment</text>
<text text-anchor="middle" x="183.58" y="-862.9" font-family="Times,serif" font-size="14.00">contracts/Gas.sol</text>
<polyline fill="none" stroke="black" points="94.52,-854.7 272.64,-854.7 "/>
<text text-anchor="start" x="102.52" y="-838.1" font-family="Times,serif" font-size="14.00">paymentType: PaymentType</text>
<text text-anchor="start" x="102.52" y="-821.3" font-family="Times,serif" font-size="14.00">paymentID: uint256</text>
<text text-anchor="start" x="102.52" y="-804.5" font-family="Times,serif" font-size="14.00">adminUpdated: bool</text>
<text text-anchor="start" x="102.52" y="-787.7" font-family="Times,serif" font-size="14.00">recipientName: string</text>
<text text-anchor="start" x="102.52" y="-770.9" font-family="Times,serif" font-size="14.00">recipient: address</text>
<text text-anchor="start" x="102.52" y="-754.1" font-family="Times,serif" font-size="14.00">admin: address</text>
<text text-anchor="start" x="102.52" y="-737.3" font-family="Times,serif" font-size="14.00">amount: uint256</text>
</g>
<!-- 3&#45;&gt;2 -->
<g id="edge1" class="edge">
<title>3&#45;&gt;2</title>
<path fill="none" stroke="black" stroke-dasharray="5,2" d="M137.38,-913.11C125.11,-937.28 111.92,-963.25 99.87,-986.99"/>
<polygon fill="black" stroke="black" points="96.72,-985.46 95.31,-995.97 102.96,-988.63 96.72,-985.46"/>
</g>
<!-- 3&#45;&gt;1 -->
<g id="edge3" class="edge">
<title>3&#45;&gt;1</title>
<path fill="none" stroke="black" d="M249.25,-728.68C264.09,-706.86 280.62,-682.3 297.97,-656.36"/>
<polygon fill="black" stroke="black" points="297.99,-656.32 297.99,-649.11 304.65,-646.34 304.64,-653.56 297.99,-656.32"/>
</g>
<!-- 4 -->
<g id="node4" class="node">
<title>4</title>
<polygon fill="#f2f2f2" stroke="black" points="291,-762.7 291,-879.5 434.15,-879.5 434.15,-762.7 291,-762.7"/>
<text text-anchor="middle" x="362.58" y="-862.9" font-family="Times,serif" font-size="14.00">&lt;&lt;Struct&gt;&gt;</text>
<text text-anchor="middle" x="362.58" y="-846.1" font-family="Times,serif" font-size="14.00">History</text>
<text text-anchor="middle" x="362.58" y="-829.3" font-family="Times,serif" font-size="14.00">contracts/Gas.sol</text>
<polyline fill="none" stroke="black" points="291,-821.1 434.15,-821.1 "/>
<text text-anchor="start" x="299" y="-804.5" font-family="Times,serif" font-size="14.00">lastUpdate: uint256</text>
<text text-anchor="start" x="299" y="-787.7" font-family="Times,serif" font-size="14.00">updatedBy: address</text>
<text text-anchor="start" x="299" y="-770.9" font-family="Times,serif" font-size="14.00">blockNumber: uint256</text>
</g>
<!-- 4&#45;&gt;1 -->
<g id="edge4" class="edge">
<title>4&#45;&gt;1</title>
<path fill="none" stroke="black" d="M384.34,-762.35C393.64,-734.14 405.13,-697.72 417.36,-657.93"/>
<polygon fill="black" stroke="black" points="417.4,-657.82 415.33,-650.91 420.92,-646.34 422.98,-653.25 417.4,-657.82"/>
</g>
<!-- 5 -->
<g id="node5" class="node">
<title>5</title>
<polygon fill="#f2f2f2" stroke="black" points="451.83,-762.7 451.83,-879.5 569.32,-879.5 569.32,-762.7 451.83,-762.7"/>
<text text-anchor="middle" x="510.58" y="-862.9" font-family="Times,serif" font-size="14.00">&lt;&lt;Struct&gt;&gt;</text>
<text text-anchor="middle" x="510.58" y="-846.1" font-family="Times,serif" font-size="14.00">ImportantStruct</text>
<text text-anchor="middle" x="510.58" y="-829.3" font-family="Times,serif" font-size="14.00">contracts/Gas.sol</text>
<polyline fill="none" stroke="black" points="451.83,-821.1 569.32,-821.1 "/>
<text text-anchor="start" x="459.83" y="-804.5" font-family="Times,serif" font-size="14.00">valueA: uint256</text>
<text text-anchor="start" x="459.83" y="-787.7" font-family="Times,serif" font-size="14.00">bigValue: uint256</text>
<text text-anchor="start" x="459.83" y="-770.9" font-family="Times,serif" font-size="14.00">valueB: uint256</text>
</g>
<!-- 5&#45;&gt;1 -->
<g id="edge5" class="edge">
<title>5&#45;&gt;1</title>
<path fill="none" stroke="black" d="M515.1,-762.35C515.97,-734.26 516.59,-698.03 516.95,-658.45"/>
<polygon fill="black" stroke="black" points="516.95,-658.34 513,-652.31 517.05,-646.34 521,-652.38 516.95,-658.34"/>
</g>
<!-- 1&#45;&gt;0 -->
<g id="edge7" class="edge">
<title>1&#45;&gt;0</title>
<path fill="none" stroke="black" d="M609.31,-646.34C619.01,-678 628.17,-707.87 636.07,-733.63"/>
<polygon fill="none" stroke="black" points="626.04,-736.74 644.87,-762.35 646.12,-730.59 626.04,-736.74"/>
</g>
<!-- 1&#45;&gt;2 -->
<g id="edge8" class="edge">
<title>1&#45;&gt;2</title>
<path fill="none" stroke="black" d="M177.85,-546.25C137.7,-587.06 101.99,-632.73 76.58,-682.6 28.05,-777.84 28.86,-903.65 38.65,-985.73"/>
<polygon fill="black" stroke="black" points="35.2,-986.29 39.92,-995.77 42.14,-985.41 35.2,-986.29"/>
</g>
<!-- 1&#45;&gt;3 -->
<g id="edge11" class="edge">
<title>1&#45;&gt;3</title>
<path fill="none" stroke="black" stroke-dasharray="5,2" d="M291.7,-646.34C274.57,-672.63 258.35,-697.69 243.94,-720.18"/>
<polygon fill="black" stroke="black" points="240.94,-718.37 238.5,-728.68 246.84,-722.14 240.94,-718.37"/>
</g>
<!-- 1&#45;&gt;4 -->
<g id="edge9" class="edge">
<title>1&#45;&gt;4</title>
<path fill="none" stroke="black" d="M407.97,-646.34C396.4,-686.12 385.92,-723.1 377.91,-752.63"/>
<polygon fill="black" stroke="black" points="374.52,-751.78 375.3,-762.35 381.28,-753.6 374.52,-751.78"/>
</g>
<!-- 1&#45;&gt;5 -->
<g id="edge10" class="edge">
<title>1&#45;&gt;5</title>
<path fill="none" stroke="black" d="M504.1,-646.34C504.41,-685.95 504.96,-722.78 505.76,-752.24"/>
<polygon fill="black" stroke="black" points="502.27,-752.45 506.06,-762.35 509.26,-752.25 502.27,-752.45"/>
</g>
<!-- 12 -->
<g id="node13" class="node">
<title>12</title>
<polygon fill="#f2f2f2" stroke="black" points="756.11,-683.1 756.11,-959.1 1241.04,-959.1 1241.04,-683.1 756.11,-683.1"/>
<text text-anchor="middle" x="998.58" y="-942.5" font-family="Times,serif" font-size="14.00">&lt;&lt;Abstract&gt;&gt;</text>
<text text-anchor="middle" x="998.58" y="-925.7" font-family="Times,serif" font-size="14.00">Ownable</text>
<text text-anchor="middle" x="998.58" y="-908.9" font-family="Times,serif" font-size="14.00">contracts/Ownable.sol</text>
<polyline fill="none" stroke="black" points="756.11,-900.7 1241.04,-900.7 "/>
<text text-anchor="start" x="764.11" y="-884.1" font-family="Times,serif" font-size="14.00">Private:</text>
<text text-anchor="start" x="764.11" y="-867.3" font-family="Times,serif" font-size="14.00"> &#160;&#160;_owner: address</text>
<polyline fill="none" stroke="black" points="756.11,-859.1 1241.04,-859.1 "/>
<text text-anchor="start" x="764.11" y="-842.5" font-family="Times,serif" font-size="14.00">Internal:</text>
<text text-anchor="start" x="764.11" y="-825.7" font-family="Times,serif" font-size="14.00"> &#160;&#160;&#160;_checkOwner()</text>
<text text-anchor="start" x="764.11" y="-808.9" font-family="Times,serif" font-size="14.00"> &#160;&#160;&#160;_transferOwnership(newOwner: address)</text>
<text text-anchor="start" x="764.11" y="-792.1" font-family="Times,serif" font-size="14.00">Public:</text>
<text text-anchor="start" x="764.11" y="-775.3" font-family="Times,serif" font-size="14.00"> &#160;&#160;&#160;&lt;&lt;event&gt;&gt; OwnershipTransferred(previousOwner: address, newOwner: address)</text>
<text text-anchor="start" x="764.11" y="-758.5" font-family="Times,serif" font-size="14.00"> &#160;&#160;&#160;&lt;&lt;modifier&gt;&gt; onlyOwner()</text>
<text text-anchor="start" x="764.11" y="-741.7" font-family="Times,serif" font-size="14.00"> &#160;&#160;&#160;constructor()</text>
<text text-anchor="start" x="764.11" y="-724.9" font-family="Times,serif" font-size="14.00"> &#160;&#160;&#160;owner(): address</text>
<text text-anchor="start" x="764.11" y="-708.1" font-family="Times,serif" font-size="14.00"> &#160;&#160;&#160;renounceOwnership() &lt;&lt;onlyOwner&gt;&gt;</text>
<text text-anchor="start" x="764.11" y="-691.3" font-family="Times,serif" font-size="14.00"> &#160;&#160;&#160;transferOwnership(newOwner: address) &lt;&lt;onlyOwner&gt;&gt;</text>
</g>
<!-- 1&#45;&gt;12 -->
<g id="edge6" class="edge">
<title>1&#45;&gt;12</title>
<path fill="none" stroke="black" d="M827.56,-646.34C832.56,-651.43 837.51,-656.46 842.41,-661.44"/>
<polygon fill="none" stroke="black" points="834.99,-668.87 863.52,-682.88 849.96,-654.14 834.99,-668.87"/>
</g>
<!-- 7 -->
<g id="node7" class="node">
<title>7</title>
<polygon fill="#f2f2f2" stroke="black" points="1259.01,-762.7 1259.01,-879.5 1430.14,-879.5 1430.14,-762.7 1259.01,-762.7"/>
<text text-anchor="middle" x="1344.58" y="-862.9" font-family="Times,serif" font-size="14.00">&lt;&lt;Struct&gt;&gt;</text>
<text text-anchor="middle" x="1344.58" y="-846.1" font-family="Times,serif" font-size="14.00">ImportantStruct</text>
<text text-anchor="middle" x="1344.58" y="-829.3" font-family="Times,serif" font-size="14.00">contracts/GasOptimized.sol</text>
<polyline fill="none" stroke="black" points="1259.01,-821.1 1430.14,-821.1 "/>
<text text-anchor="start" x="1267.01" y="-804.5" font-family="Times,serif" font-size="14.00">valueA: uint256</text>
<text text-anchor="start" x="1267.01" y="-787.7" font-family="Times,serif" font-size="14.00">bigValue: uint256</text>
<text text-anchor="start" x="1267.01" y="-770.9" font-family="Times,serif" font-size="14.00">valueB: uint256</text>
</g>
<!-- 6 -->
<g id="node11" class="node">
<title>6</title>
<polygon fill="#f2f2f2" stroke="black" points="1159.21,-25.7 1159.21,-620.9 1775.95,-620.9 1775.95,-25.7 1159.21,-25.7"/>
<text text-anchor="middle" x="1467.58" y="-604.3" font-family="Times,serif" font-size="14.00">GasContractOptimized</text>
<text text-anchor="middle" x="1467.58" y="-587.5" font-family="Times,serif" font-size="14.00">contracts/GasOptimized.sol</text>
<polyline fill="none" stroke="black" points="1159.21,-579.3 1775.95,-579.3 "/>
<text text-anchor="start" x="1167.21" y="-562.7" font-family="Times,serif" font-size="14.00">Public:</text>
<text text-anchor="start" x="1167.21" y="-545.9" font-family="Times,serif" font-size="14.00"> &#160;&#160;tradeFlag: uint256</text>
<text text-anchor="start" x="1167.21" y="-529.1" font-family="Times,serif" font-size="14.00"> &#160;&#160;basicFlag: uint256</text>
<text text-anchor="start" x="1167.21" y="-512.3" font-family="Times,serif" font-size="14.00"> &#160;&#160;dividendFlag: uint256</text>
<text text-anchor="start" x="1167.21" y="-495.5" font-family="Times,serif" font-size="14.00"> &#160;&#160;totalSupply: uint256</text>
<text text-anchor="start" x="1167.21" y="-478.7" font-family="Times,serif" font-size="14.00"> &#160;&#160;paymentCounter: uint256</text>
<text text-anchor="start" x="1167.21" y="-461.9" font-family="Times,serif" font-size="14.00"> &#160;&#160;contractOwner: address</text>
<text text-anchor="start" x="1167.21" y="-445.1" font-family="Times,serif" font-size="14.00"> &#160;&#160;administrators: address[5]</text>
<text text-anchor="start" x="1167.21" y="-428.3" font-family="Times,serif" font-size="14.00"> &#160;&#160;balances: mapping(address=&gt;uint256)</text>
<text text-anchor="start" x="1167.21" y="-411.5" font-family="Times,serif" font-size="14.00"> &#160;&#160;whitelist: mapping(address=&gt;uint256)</text>
<text text-anchor="start" x="1167.21" y="-394.7" font-family="Times,serif" font-size="14.00"> &#160;&#160;whiteListStruct: mapping(address=&gt;ImportantStruct)</text>
<text text-anchor="start" x="1167.21" y="-377.9" font-family="Times,serif" font-size="14.00"> &#160;&#160;defaultPayment: PaymentType</text>
<text text-anchor="start" x="1167.21" y="-361.1" font-family="Times,serif" font-size="14.00"> &#160;&#160;payments: mapping(address=&gt;Payment[])</text>
<text text-anchor="start" x="1167.21" y="-344.3" font-family="Times,serif" font-size="14.00"> &#160;&#160;paymentHistory: History[]</text>
<polyline fill="none" stroke="black" points="1159.21,-336.1 1775.95,-336.1 "/>
<text text-anchor="start" x="1167.21" y="-319.5" font-family="Times,serif" font-size="14.00">Public:</text>
<text text-anchor="start" x="1167.21" y="-302.7" font-family="Times,serif" font-size="14.00"> &#160;&#160;&#160;&lt;&lt;event&gt;&gt; supplyChanged(address, uint256)</text>
<text text-anchor="start" x="1167.21" y="-285.9" font-family="Times,serif" font-size="14.00"> &#160;&#160;&#160;&lt;&lt;event&gt;&gt; Transfer(recipient: address, amount: uint256)</text>
<text text-anchor="start" x="1167.21" y="-269.1" font-family="Times,serif" font-size="14.00"> &#160;&#160;&#160;&lt;&lt;event&gt;&gt; PaymentUpdated(admin: address, ID: uint256, amount: uint256, recipient: string)</text>
<text text-anchor="start" x="1167.21" y="-252.3" font-family="Times,serif" font-size="14.00"> &#160;&#160;&#160;&lt;&lt;event&gt;&gt; AddedToWhitelist(userAddress: address, tier: uint256)</text>
<text text-anchor="start" x="1167.21" y="-235.5" font-family="Times,serif" font-size="14.00"> &#160;&#160;&#160;&lt;&lt;event&gt;&gt; WhiteListTransfer(address)</text>
<text text-anchor="start" x="1167.21" y="-218.7" font-family="Times,serif" font-size="14.00"> &#160;&#160;&#160;&lt;&lt;modifier&gt;&gt; checkIfWhiteListed(sender: address)</text>
<text text-anchor="start" x="1167.21" y="-201.9" font-family="Times,serif" font-size="14.00"> &#160;&#160;&#160;constructor(_admins: address[], _totalSupply: uint256)</text>
<text text-anchor="start" x="1167.21" y="-185.1" font-family="Times,serif" font-size="14.00"> &#160;&#160;&#160;getPaymentHistory(): (_paymentHistory: History[])</text>
<text text-anchor="start" x="1167.21" y="-168.3" font-family="Times,serif" font-size="14.00"> &#160;&#160;&#160;checkForAdmin(_user: address): (admin_: bool)</text>
<text text-anchor="start" x="1167.21" y="-151.5" font-family="Times,serif" font-size="14.00"> &#160;&#160;&#160;balanceOf(_user: address): (balance: uint256)</text>
<text text-anchor="start" x="1167.21" y="-134.7" font-family="Times,serif" font-size="14.00"> &#160;&#160;&#160;getTradingMode(): (_mode: bool)</text>
<text text-anchor="start" x="1167.21" y="-117.9" font-family="Times,serif" font-size="14.00"> &#160;&#160;&#160;addHistory(_updateAddress: address, _tradeMode: bool)</text>
<text text-anchor="start" x="1167.21" y="-101.1" font-family="Times,serif" font-size="14.00"> &#160;&#160;&#160;getPayments(_user: address): (payments_: Payment[])</text>
<text text-anchor="start" x="1167.21" y="-84.3" font-family="Times,serif" font-size="14.00"> &#160;&#160;&#160;transfer(_recipient: address, _amount: uint256, _name: string)</text>
<text text-anchor="start" x="1167.21" y="-67.5" font-family="Times,serif" font-size="14.00"> &#160;&#160;&#160;updatePayment(_user: address, _ID: uint256, _amount: uint256, _type: PaymentType) &lt;&lt;onlyOwner&gt;&gt;</text>
<text text-anchor="start" x="1167.21" y="-50.7" font-family="Times,serif" font-size="14.00"> &#160;&#160;&#160;addToWhitelist(_userAddrs: address, _tier: uint256) &lt;&lt;onlyOwner&gt;&gt;</text>
<text text-anchor="start" x="1167.21" y="-33.9" font-family="Times,serif" font-size="14.00"> &#160;&#160;&#160;whiteTransfer(_recipient: address, _amount: uint256, _struct: ImportantStruct) &lt;&lt;checkIfWhiteListed&gt;&gt;</text>
</g>
<!-- 7&#45;&gt;6 -->
<g id="edge14" class="edge">
<title>7&#45;&gt;6</title>
<path fill="none" stroke="black" d="M1363.44,-762.3C1372.94,-728.27 1385.03,-682.29 1397.59,-632.88"/>
<polygon fill="black" stroke="black" points="1397.67,-632.57 1395.27,-625.77 1400.62,-620.94 1403.02,-627.74 1397.67,-632.57"/>
</g>
<!-- 8 -->
<g id="node8" class="node">
<title>8</title>
<polygon fill="#f2f2f2" stroke="black" points="1382.01,-996.1 1382.01,-1146.5 1553.14,-1146.5 1553.14,-996.1 1382.01,-996.1"/>
<text text-anchor="middle" x="1467.58" y="-1129.9" font-family="Times,serif" font-size="14.00">&lt;&lt;Enum&gt;&gt;</text>
<text text-anchor="middle" x="1467.58" y="-1113.1" font-family="Times,serif" font-size="14.00">PaymentType</text>
<text text-anchor="middle" x="1467.58" y="-1096.3" font-family="Times,serif" font-size="14.00">contracts/GasOptimized.sol</text>
<polyline fill="none" stroke="black" points="1382.01,-1088.1 1553.14,-1088.1 "/>
<text text-anchor="start" x="1390.01" y="-1071.5" font-family="Times,serif" font-size="14.00">Unknown: 0</text>
<text text-anchor="start" x="1390.01" y="-1054.7" font-family="Times,serif" font-size="14.00">BasicPayment: 1</text>
<text text-anchor="start" x="1390.01" y="-1037.9" font-family="Times,serif" font-size="14.00">Refund: 2</text>
<text text-anchor="start" x="1390.01" y="-1021.1" font-family="Times,serif" font-size="14.00">Dividend: 3</text>
<text text-anchor="start" x="1390.01" y="-1004.3" font-family="Times,serif" font-size="14.00">GroupPayment: 4</text>
</g>
<!-- 8&#45;&gt;6 -->
<g id="edge13" class="edge">
<title>8&#45;&gt;6</title>
<path fill="none" stroke="black" d="M1471.82,-995.94C1473.81,-910.96 1474.61,-766.36 1474.24,-633.05"/>
<polygon fill="black" stroke="black" points="1474.24,-633.01 1470.22,-627.03 1474.2,-621.01 1478.22,-627 1474.24,-633.01"/>
</g>
<!-- 9 -->
<g id="node9" class="node">
<title>9</title>
<polygon fill="#f2f2f2" stroke="black" points="1504.52,-729.1 1504.52,-913.1 1682.64,-913.1 1682.64,-729.1 1504.52,-729.1"/>
<text text-anchor="middle" x="1593.58" y="-896.5" font-family="Times,serif" font-size="14.00">&lt;&lt;Struct&gt;&gt;</text>
<text text-anchor="middle" x="1593.58" y="-879.7" font-family="Times,serif" font-size="14.00">Payment</text>
<text text-anchor="middle" x="1593.58" y="-862.9" font-family="Times,serif" font-size="14.00">contracts/GasOptimized.sol</text>
<polyline fill="none" stroke="black" points="1504.52,-854.7 1682.64,-854.7 "/>
<text text-anchor="start" x="1512.52" y="-838.1" font-family="Times,serif" font-size="14.00">paymentType: PaymentType</text>
<text text-anchor="start" x="1512.52" y="-821.3" font-family="Times,serif" font-size="14.00">paymentID: uint256</text>
<text text-anchor="start" x="1512.52" y="-804.5" font-family="Times,serif" font-size="14.00">recipient: address</text>
<text text-anchor="start" x="1512.52" y="-787.7" font-family="Times,serif" font-size="14.00">recipientName: string</text>
<text text-anchor="start" x="1512.52" y="-770.9" font-family="Times,serif" font-size="14.00">adminUpdated: bool</text>
<text text-anchor="start" x="1512.52" y="-754.1" font-family="Times,serif" font-size="14.00">admin: address</text>
<text text-anchor="start" x="1512.52" y="-737.3" font-family="Times,serif" font-size="14.00">amount: uint256</text>
</g>
<!-- 9&#45;&gt;8 -->
<g id="edge12" class="edge">
<title>9&#45;&gt;8</title>
<path fill="none" stroke="black" stroke-dasharray="5,2" d="M1547.38,-913.11C1535.11,-937.28 1521.92,-963.25 1509.87,-986.99"/>
<polygon fill="black" stroke="black" points="1506.72,-985.46 1505.31,-995.97 1512.96,-988.63 1506.72,-985.46"/>
</g>
<!-- 9&#45;&gt;6 -->
<g id="edge15" class="edge">
<title>9&#45;&gt;6</title>
<path fill="none" stroke="black" d="M1575.78,-728.92C1569.15,-700.53 1561.15,-667.5 1552.54,-632.78"/>
<polygon fill="black" stroke="black" points="1552.49,-632.58 1547.16,-627.73 1549.6,-620.94 1554.93,-625.8 1552.49,-632.58"/>
</g>
<!-- 10 -->
<g id="node10" class="node">
<title>10</title>
<polygon fill="#f2f2f2" stroke="black" points="1701.01,-754.3 1701.01,-887.9 1872.14,-887.9 1872.14,-754.3 1701.01,-754.3"/>
<text text-anchor="middle" x="1786.58" y="-871.3" font-family="Times,serif" font-size="14.00">&lt;&lt;Struct&gt;&gt;</text>
<text text-anchor="middle" x="1786.58" y="-854.5" font-family="Times,serif" font-size="14.00">History</text>
<text text-anchor="middle" x="1786.58" y="-837.7" font-family="Times,serif" font-size="14.00">contracts/GasOptimized.sol</text>
<polyline fill="none" stroke="black" points="1701.01,-829.5 1872.14,-829.5 "/>
<text text-anchor="start" x="1709.01" y="-812.9" font-family="Times,serif" font-size="14.00">lastUpdate: uint256</text>
<text text-anchor="start" x="1709.01" y="-796.1" font-family="Times,serif" font-size="14.00">updatedBy: address</text>
<text text-anchor="start" x="1709.01" y="-779.3" font-family="Times,serif" font-size="14.00">blockNumber: uint256</text>
<text text-anchor="start" x="1709.01" y="-762.5" font-family="Times,serif" font-size="14.00">trade: bool</text>
</g>
<!-- 10&#45;&gt;6 -->
<g id="edge16" class="edge">
<title>10&#45;&gt;6</title>
<path fill="none" stroke="black" d="M1748.85,-754.05C1728.26,-720.6 1701.02,-677.32 1671.58,-631.15"/>
<polygon fill="black" stroke="black" points="1671.52,-631.06 1664.92,-628.15 1665.07,-620.94 1671.67,-623.85 1671.52,-631.06"/>
</g>
<!-- 6&#45;&gt;7 -->
<g id="edge18" class="edge">
<title>6&#45;&gt;7</title>
<path fill="none" stroke="black" d="M1387.35,-620.94C1375.37,-670.21 1364.42,-716.8 1356.53,-752.52"/>
<polygon fill="black" stroke="black" points="1353.11,-751.78 1354.39,-762.3 1359.95,-753.28 1353.11,-751.78"/>
</g>
<!-- 6&#45;&gt;8 -->
<g id="edge19" class="edge">
<title>6&#45;&gt;8</title>
<path fill="none" stroke="black" d="M1460.95,-621.01C1460.51,-752.51 1461.23,-897.22 1463.11,-985.94"/>
<polygon fill="black" stroke="black" points="1459.61,-986.02 1463.33,-995.94 1466.61,-985.87 1459.61,-986.02"/>
</g>
<!-- 6&#45;&gt;9 -->
<g id="edge21" class="edge">
<title>6&#45;&gt;9</title>
<path fill="none" stroke="black" stroke-dasharray="5,2" d="M1536.33,-620.94C1545.41,-656.01 1554.34,-689.72 1562.35,-719.12"/>
<polygon fill="black" stroke="black" points="1559.02,-720.2 1565.04,-728.92 1565.77,-718.35 1559.02,-720.2"/>
</g>
<!-- 6&#45;&gt;10 -->
<g id="edge20" class="edge">
<title>6&#45;&gt;10</title>
<path fill="none" stroke="black" d="M1651.8,-620.94C1681.67,-667.01 1710.36,-710.75 1733.54,-745.43"/>
<polygon fill="black" stroke="black" points="1730.84,-747.69 1739.32,-754.05 1736.66,-743.8 1730.84,-747.69"/>
</g>
<!-- 6&#45;&gt;12 -->
<g id="edge17" class="edge">
<title>6&#45;&gt;12</title>
<path fill="none" stroke="black" d="M1186.97,-620.94C1174.18,-634.47 1161.57,-647.79 1149.32,-660.74"/>
<polygon fill="none" stroke="black" points="1141.36,-653.87 1128.38,-682.88 1156.62,-668.31 1141.36,-653.87"/>
</g>
<!-- 11 -->
<g id="node12" class="node">
<title>11</title>
<polygon fill="#f2f2f2" stroke="black" points="919.62,-1012.9 919.62,-1129.7 1077.53,-1129.7 1077.53,-1012.9 919.62,-1012.9"/>
<text text-anchor="middle" x="998.58" y="-1113.1" font-family="Times,serif" font-size="14.00">&lt;&lt;Abstract&gt;&gt;</text>
<text text-anchor="middle" x="998.58" y="-1096.3" font-family="Times,serif" font-size="14.00">Context</text>
<text text-anchor="middle" x="998.58" y="-1079.5" font-family="Times,serif" font-size="14.00">contracts/Ownable.sol</text>
<polyline fill="none" stroke="black" points="919.62,-1071.3 1077.53,-1071.3 "/>
<text text-anchor="start" x="927.62" y="-1054.7" font-family="Times,serif" font-size="14.00">Internal:</text>
<text text-anchor="start" x="927.62" y="-1037.9" font-family="Times,serif" font-size="14.00"> &#160;&#160;&#160;_msgSender(): address</text>
<text text-anchor="start" x="927.62" y="-1021.1" font-family="Times,serif" font-size="14.00"> &#160;&#160;&#160;_msgData(): bytes</text>
</g>
<!-- 12&#45;&gt;11 -->
<g id="edge22" class="edge">
<title>12&#45;&gt;11</title>
<path fill="none" stroke="black" d="M998.58,-959.27C998.58,-967.21 998.58,-975.09 998.58,-982.76"/>
<polygon fill="none" stroke="black" points="988.08,-982.79 998.58,-1012.79 1009.08,-982.79 988.08,-982.79"/>
</g>
</g>
</svg>
