<?xml version="1.0" encoding="UTF-8" standalone="no"?>
<!DOCTYPE svg PUBLIC "-//W3C//DTD SVG 1.1//EN"
 "http://www.w3.org/Graphics/SVG/1.1/DTD/svg11.dtd">
<!-- Generated by graphviz version 5.0.0 (20220707.1540)
 -->
<!-- Title: StorageDiagram Pages: 1 -->
<svg width="1587pt" height="728pt"
 viewBox="0.00 0.00 1587.43 727.80" xmlns="http://www.w3.org/2000/svg" xmlns:xlink="http://www.w3.org/1999/xlink">
<g id="graph0" class="graph" transform="scale(1 1) rotate(0) translate(4 723.8)">
<title>StorageDiagram</title>
<polygon fill="white" stroke="transparent" points="-4,4 -4,-723.8 1583.43,-723.8 1583.43,4 -4,4"/>
<!-- 6 -->
<g id="node1" class="node">
<title>6</title>
<polygon fill="#f2f2f2" stroke="black" points="0,-317.9 0,-665.1 527.68,-665.1 527.68,-317.9 0,-317.9"/>
<text text-anchor="middle" x="263.84" y="-648.5" font-family="Courier New" font-size="14.00">GasContractOptimized &lt;&lt;Contract&gt;&gt;</text>
<polyline fill="none" stroke="black" points="0,-640.3 527.68,-640.3 "/>
<text text-anchor="middle" x="24.8" y="-623.7" font-family="Courier New" font-size="14.00">slot</text>
<polyline fill="none" stroke="black" points="0,-615.5 49.61,-615.5 "/>
<text text-anchor="middle" x="24.8" y="-598.9" font-family="Courier New" font-size="14.00">0</text>
<polyline fill="none" stroke="black" points="0,-590.7 49.61,-590.7 "/>
<text text-anchor="middle" x="24.8" y="-574.1" font-family="Courier New" font-size="14.00">1</text>
<polyline fill="none" stroke="black" points="0,-565.9 49.61,-565.9 "/>
<text text-anchor="middle" x="24.8" y="-549.3" font-family="Courier New" font-size="14.00">2</text>
<polyline fill="none" stroke="black" points="0,-541.1 49.61,-541.1 "/>
<text text-anchor="middle" x="24.8" y="-524.5" font-family="Courier New" font-size="14.00">3</text>
<polyline fill="none" stroke="black" points="0,-516.3 49.61,-516.3 "/>
<text text-anchor="middle" x="24.8" y="-499.7" font-family="Courier New" font-size="14.00">4</text>
<polyline fill="none" stroke="black" points="0,-491.5 49.61,-491.5 "/>
<text text-anchor="middle" x="24.8" y="-474.9" font-family="Courier New" font-size="14.00">5</text>
<polyline fill="none" stroke="black" points="0,-466.7 49.61,-466.7 "/>
<text text-anchor="middle" x="24.8" y="-450.1" font-family="Courier New" font-size="14.00">6&#45;10</text>
<polyline fill="none" stroke="black" points="0,-441.9 49.61,-441.9 "/>
<text text-anchor="middle" x="24.8" y="-425.3" font-family="Courier New" font-size="14.00">11</text>
<polyline fill="none" stroke="black" points="0,-417.1 49.61,-417.1 "/>
<text text-anchor="middle" x="24.8" y="-400.5" font-family="Courier New" font-size="14.00">12</text>
<polyline fill="none" stroke="black" points="0,-392.3 49.61,-392.3 "/>
<text text-anchor="middle" x="24.8" y="-375.7" font-family="Courier New" font-size="14.00">13</text>
<polyline fill="none" stroke="black" points="0,-367.5 49.61,-367.5 "/>
<text text-anchor="middle" x="24.8" y="-350.9" font-family="Courier New" font-size="14.00">14</text>
<polyline fill="none" stroke="black" points="0,-342.7 49.61,-342.7 "/>
<text text-anchor="middle" x="24.8" y="-326.1" font-family="Courier New" font-size="14.00">15</text>
<polyline fill="none" stroke="black" points="49.61,-317.9 49.61,-640.3 "/>
<text text-anchor="middle" x="288.64" y="-623.7" font-family="Courier New" font-size="14.00">type: &lt;inherited contract&gt;.variable (bytes)</text>
<polyline fill="none" stroke="black" points="49.61,-615.5 527.68,-615.5 "/>
<text text-anchor="middle" x="143.82" y="-598.9" font-family="Courier New" font-size="14.00">unallocated (12)</text>
<polyline fill="none" stroke="black" points="238.03,-590.7 238.03,-615.5 "/>
<text text-anchor="middle" x="382.65" y="-598.9" font-family="Courier New" font-size="14.00">address: Ownable._owner (20)</text>
<polyline fill="none" stroke="black" points="49.61,-590.7 527.68,-590.7 "/>
<text text-anchor="middle" x="288.22" y="-574.1" font-family="Courier New" font-size="14.00">uint256: tradeFlag (32)</text>
<polyline fill="none" stroke="black" points="49.61,-565.9 527.68,-565.9 "/>
<text text-anchor="middle" x="288.32" y="-549.3" font-family="Courier New" font-size="14.00">uint256: dividendFlag (32)</text>
<polyline fill="none" stroke="black" points="49.61,-541.1 527.68,-541.1 "/>
<text text-anchor="middle" x="288.62" y="-524.5" font-family="Courier New" font-size="14.00">uint256: totalSupply (32)</text>
<polyline fill="none" stroke="black" points="49.61,-516.3 527.68,-516.3 "/>
<text text-anchor="middle" x="288.22" y="-499.7" font-family="Courier New" font-size="14.00">uint256: paymentCounter (32)</text>
<polyline fill="none" stroke="black" points="49.61,-491.5 527.68,-491.5 "/>
<text text-anchor="middle" x="145.82" y="-474.9" font-family="Courier New" font-size="14.00">unallocated (12)</text>
<polyline fill="none" stroke="black" points="242.03,-466.7 242.03,-491.5 "/>
<text text-anchor="middle" x="384.45" y="-474.9" font-family="Courier New" font-size="14.00">address: contractOwner (20)</text>
<polyline fill="none" stroke="black" points="49.61,-466.7 527.68,-466.7 "/>
<text text-anchor="middle" x="288.53" y="-450.1" font-family="Courier New" font-size="14.00">address[5]: administrators (160)</text>
<polyline fill="none" stroke="black" points="49.61,-441.9 527.68,-441.9 "/>
<text text-anchor="middle" x="288.63" y="-425.3" font-family="Courier New" font-size="14.00">mapping(address=&gt;uint256): balances (32)</text>
<polyline fill="none" stroke="black" points="49.61,-417.1 527.68,-417.1 "/>
<text text-anchor="middle" x="288.33" y="-400.5" font-family="Courier New" font-size="14.00">mapping(address=&gt;uint256): whitelist (32)</text>
<polyline fill="none" stroke="black" points="49.61,-392.3 527.68,-392.3 "/>
<text text-anchor="middle" x="288.64" y="-375.7" font-family="Courier New" font-size="14.00">mapping(address=&gt;ImportantStruct): whiteListStruct (32)</text>
<polyline fill="none" stroke="black" points="49.61,-367.5 527.68,-367.5 "/>
<text text-anchor="middle" x="288.53" y="-350.9" font-family="Courier New" font-size="14.00">mapping(address=&gt;Payment[]): payments (32)</text>
<polyline fill="none" stroke="black" points="49.61,-342.7 527.68,-342.7 "/>
<text text-anchor="middle" x="288.63" y="-326.1" font-family="Courier New" font-size="14.00">History[]: paymentHistory (32)</text>
</g>
<!-- 1 -->
<g id="node2" class="node">
<title>1</title>
<polygon fill="#f2f2f2" stroke="black" points="689.7,-545.7 689.7,-719.3 1008.15,-719.3 1008.15,-545.7 689.7,-545.7"/>
<text text-anchor="middle" x="848.93" y="-702.7" font-family="Courier New" font-size="14.00">address[5]: administrators &lt;&lt;Array&gt;&gt;</text>
<polyline fill="none" stroke="black" points="689.7,-694.5 1008.15,-694.5 "/>
<text text-anchor="middle" x="714.5" y="-677.9" font-family="Courier New" font-size="14.00">slot</text>
<polyline fill="none" stroke="black" points="689.7,-669.7 739.31,-669.7 "/>
<text text-anchor="middle" x="714.5" y="-653.1" font-family="Courier New" font-size="14.00">6</text>
<polyline fill="none" stroke="black" points="689.7,-644.9 739.31,-644.9 "/>
<text text-anchor="middle" x="714.5" y="-628.3" font-family="Courier New" font-size="14.00">7</text>
<polyline fill="none" stroke="black" points="689.7,-620.1 739.31,-620.1 "/>
<text text-anchor="middle" x="714.5" y="-603.5" font-family="Courier New" font-size="14.00">8</text>
<polyline fill="none" stroke="black" points="689.7,-595.3 739.31,-595.3 "/>
<text text-anchor="middle" x="714.5" y="-578.7" font-family="Courier New" font-size="14.00">9</text>
<polyline fill="none" stroke="black" points="689.7,-570.5 739.31,-570.5 "/>
<text text-anchor="middle" x="714.5" y="-553.9" font-family="Courier New" font-size="14.00">10</text>
<polyline fill="none" stroke="black" points="739.31,-545.7 739.31,-694.5 "/>
<text text-anchor="middle" x="873.43" y="-677.9" font-family="Courier New" font-size="14.00">type: variable (bytes)</text>
<polyline fill="none" stroke="black" points="739.31,-669.7 1007.54,-669.7 "/>
<text text-anchor="middle" x="814.52" y="-653.1" font-family="Courier New" font-size="14.00">unallocated (12)</text>
<polyline fill="none" stroke="black" points="889.73,-644.9 889.73,-669.7 "/>
<text text-anchor="middle" x="948.64" y="-653.1" font-family="Courier New" font-size="14.00">address (20)</text>
<polyline fill="none" stroke="black" points="739.31,-644.9 1007.54,-644.9 "/>
<text text-anchor="middle" x="814.52" y="-628.3" font-family="Courier New" font-size="14.00">unallocated (12)</text>
<polyline fill="none" stroke="black" points="889.73,-620.1 889.73,-644.9 "/>
<text text-anchor="middle" x="948.64" y="-628.3" font-family="Courier New" font-size="14.00">address (20)</text>
<polyline fill="none" stroke="black" points="739.31,-620.1 1007.54,-620.1 "/>
<text text-anchor="middle" x="814.52" y="-603.5" font-family="Courier New" font-size="14.00">unallocated (12)</text>
<polyline fill="none" stroke="black" points="889.73,-595.3 889.73,-620.1 "/>
<text text-anchor="middle" x="948.64" y="-603.5" font-family="Courier New" font-size="14.00">address (20)</text>
<polyline fill="none" stroke="black" points="739.31,-595.3 1007.54,-595.3 "/>
<text text-anchor="middle" x="814.52" y="-578.7" font-family="Courier New" font-size="14.00">unallocated (12)</text>
<polyline fill="none" stroke="black" points="889.73,-570.5 889.73,-595.3 "/>
<text text-anchor="middle" x="948.64" y="-578.7" font-family="Courier New" font-size="14.00">address (20)</text>
<polyline fill="none" stroke="black" points="739.31,-570.5 1007.54,-570.5 "/>
<text text-anchor="middle" x="814.52" y="-553.9" font-family="Courier New" font-size="14.00">unallocated (12)</text>
<polyline fill="none" stroke="black" points="889.73,-545.7 889.73,-570.5 "/>
<text text-anchor="middle" x="948.64" y="-553.9" font-family="Courier New" font-size="14.00">address (20)</text>
</g>
<!-- 6&#45;&gt;1 -->
<g id="edge1" class="edge">
<title>6:12&#45;&gt;1</title>
<path fill="none" stroke="black" d="M527.68,-454.5C567.48,-454.5 534.33,-509.62 563.68,-536.5 596.11,-566.2 638.07,-586.75 679.73,-600.95"/>
<polygon fill="black" stroke="black" points="678.87,-604.35 689.46,-604.16 681.06,-597.71 678.87,-604.35"/>
</g>
<!-- 2 -->
<g id="node3" class="node">
<title>2</title>
<polygon fill="#f2f2f2" stroke="black" points="723.71,-402.5 723.71,-526.5 974.14,-526.5 974.14,-402.5 723.71,-402.5"/>
<text text-anchor="middle" x="848.93" y="-509.9" font-family="Courier New" font-size="14.00">ImportantStruct &lt;&lt;Struct&gt;&gt;</text>
<polyline fill="none" stroke="black" points="723.71,-501.7 974.14,-501.7 "/>
<text text-anchor="middle" x="748.51" y="-485.1" font-family="Courier New" font-size="14.00">slot</text>
<polyline fill="none" stroke="black" points="723.71,-476.9 773.31,-476.9 "/>
<text text-anchor="middle" x="748.51" y="-460.3" font-family="Courier New" font-size="14.00">0</text>
<polyline fill="none" stroke="black" points="723.71,-452.1 773.31,-452.1 "/>
<text text-anchor="middle" x="748.51" y="-435.5" font-family="Courier New" font-size="14.00">1</text>
<polyline fill="none" stroke="black" points="723.71,-427.3 773.31,-427.3 "/>
<text text-anchor="middle" x="748.51" y="-410.7" font-family="Courier New" font-size="14.00">2</text>
<polyline fill="none" stroke="black" points="773.31,-402.5 773.31,-501.7 "/>
<text text-anchor="middle" x="873.73" y="-485.1" font-family="Courier New" font-size="14.00">type: variable (bytes)</text>
<polyline fill="none" stroke="black" points="773.31,-476.9 974.14,-476.9 "/>
<text text-anchor="middle" x="873.33" y="-460.3" font-family="Courier New" font-size="14.00">uint256: valueA (32)</text>
<polyline fill="none" stroke="black" points="773.31,-452.1 974.14,-452.1 "/>
<text text-anchor="middle" x="873.73" y="-435.5" font-family="Courier New" font-size="14.00">uint256: bigValue (32)</text>
<polyline fill="none" stroke="black" points="773.31,-427.3 974.14,-427.3 "/>
<text text-anchor="middle" x="873.33" y="-410.7" font-family="Courier New" font-size="14.00">uint256: valueB (32)</text>
</g>
<!-- 6&#45;&gt;2 -->
<g id="edge2" class="edge">
<title>6:18&#45;&gt;2</title>
<path fill="none" stroke="black" d="M527.68,-379.5C544.69,-379.5 547.42,-387.52 563.68,-392.5 612.18,-407.36 665.98,-421.56 713.61,-433.36"/>
<polygon fill="black" stroke="black" points="712.82,-436.77 723.37,-435.76 714.5,-429.97 712.82,-436.77"/>
</g>
<!-- 3 -->
<g id="node4" class="node">
<title>3</title>
<polygon fill="#f2f2f2" stroke="black" points="623.29,-159.9 623.29,-383.1 1074.56,-383.1 1074.56,-159.9 623.29,-159.9"/>
<text text-anchor="middle" x="848.93" y="-366.5" font-family="Courier New" font-size="14.00">Payment &lt;&lt;Struct&gt;&gt;</text>
<polyline fill="none" stroke="black" points="623.29,-358.3 1074.56,-358.3 "/>
<text text-anchor="middle" x="648.1" y="-341.7" font-family="Courier New" font-size="14.00">slot</text>
<polyline fill="none" stroke="black" points="623.29,-333.5 672.9,-333.5 "/>
<text text-anchor="middle" x="648.1" y="-316.9" font-family="Courier New" font-size="14.00">0</text>
<polyline fill="none" stroke="black" points="623.29,-308.7 672.9,-308.7 "/>
<text text-anchor="middle" x="648.1" y="-292.1" font-family="Courier New" font-size="14.00">1</text>
<polyline fill="none" stroke="black" points="623.29,-283.9 672.9,-283.9 "/>
<text text-anchor="middle" x="648.1" y="-267.3" font-family="Courier New" font-size="14.00">2</text>
<polyline fill="none" stroke="black" points="623.29,-259.1 672.9,-259.1 "/>
<text text-anchor="middle" x="648.1" y="-242.5" font-family="Courier New" font-size="14.00">3</text>
<polyline fill="none" stroke="black" points="623.29,-234.3 672.9,-234.3 "/>
<text text-anchor="middle" x="648.1" y="-217.7" font-family="Courier New" font-size="14.00">4</text>
<polyline fill="none" stroke="black" points="623.29,-209.5 672.9,-209.5 "/>
<text text-anchor="middle" x="648.1" y="-192.9" font-family="Courier New" font-size="14.00">5</text>
<polyline fill="none" stroke="black" points="623.29,-184.7 672.9,-184.7 "/>
<text text-anchor="middle" x="648.1" y="-168.1" font-family="Courier New" font-size="14.00">6</text>
<polyline fill="none" stroke="black" points="672.9,-159.9 672.9,-358.3 "/>
<text text-anchor="middle" x="873.73" y="-341.7" font-family="Courier New" font-size="14.00">type: variable (bytes)</text>
<polyline fill="none" stroke="black" points="672.9,-333.5 1074.56,-333.5 "/>
<text text-anchor="middle" x="748.11" y="-316.9" font-family="Courier New" font-size="14.00">unallocated (31)</text>
<polyline fill="none" stroke="black" points="823.32,-308.7 823.32,-333.5 "/>
<text text-anchor="middle" x="948.94" y="-316.9" font-family="Courier New" font-size="14.00">PaymentType: paymentType (1)</text>
<polyline fill="none" stroke="black" points="672.9,-308.7 1074.56,-308.7 "/>
<text text-anchor="middle" x="873.51" y="-292.1" font-family="Courier New" font-size="14.00">uint256: paymentID (32)</text>
<polyline fill="none" stroke="black" points="672.9,-283.9 1074.56,-283.9 "/>
<text text-anchor="middle" x="760.61" y="-267.3" font-family="Courier New" font-size="14.00">unallocated (31)</text>
<polyline fill="none" stroke="black" points="848.32,-259.1 848.32,-283.9 "/>
<text text-anchor="middle" x="961.24" y="-267.3" font-family="Courier New" font-size="14.00">bool: adminUpdated (1)</text>
<polyline fill="none" stroke="black" points="672.9,-259.1 1074.56,-259.1 "/>
<text text-anchor="middle" x="873.62" y="-242.5" font-family="Courier New" font-size="14.00">string: recipientName (32)</text>
<polyline fill="none" stroke="black" points="672.9,-234.3 1074.56,-234.3 "/>
<text text-anchor="middle" x="758.61" y="-217.7" font-family="Courier New" font-size="14.00">unallocated (12)</text>
<polyline fill="none" stroke="black" points="844.32,-209.5 844.32,-234.3 "/>
<text text-anchor="middle" x="959.44" y="-217.7" font-family="Courier New" font-size="14.00">address: recipient (20)</text>
<polyline fill="none" stroke="black" points="672.9,-209.5 1074.56,-209.5 "/>
<text text-anchor="middle" x="766.61" y="-192.9" font-family="Courier New" font-size="14.00">unallocated (12)</text>
<polyline fill="none" stroke="black" points="860.32,-184.7 860.32,-209.5 "/>
<text text-anchor="middle" x="967.13" y="-192.9" font-family="Courier New" font-size="14.00">address: admin (20)</text>
<polyline fill="none" stroke="black" points="672.9,-184.7 1074.56,-184.7 "/>
<text text-anchor="middle" x="873.41" y="-168.1" font-family="Courier New" font-size="14.00">uint256: amount (32)</text>
</g>
<!-- 6&#45;&gt;3 -->
<g id="edge3" class="edge">
<title>6:26&#45;&gt;3</title>
<path fill="none" stroke="black" d="M527.68,-355.5C555.7,-355.5 584.67,-352.45 613.2,-347.52"/>
<polygon fill="black" stroke="black" points="614.05,-350.92 623.27,-345.7 612.8,-344.04 614.05,-350.92"/>
</g>
<!-- 5 -->
<g id="node6" class="node">
<title>5</title>
<polygon fill="#f2f2f2" stroke="black" points="563.68,-49.9 563.68,-141.1 1134.17,-141.1 1134.17,-49.9 563.68,-49.9"/>
<text text-anchor="middle" x="848.93" y="-124.5" font-family="Courier New" font-size="14.00">History[]: paymentHistory &lt;&lt;Array&gt;&gt;</text>
<text text-anchor="middle" x="848.93" y="-107.7" font-family="Courier New" font-size="14.00">0x98fc0aaa91a89c95afcb1d5888f8086579dc6725de1a2adf06dad42d1f9d2289</text>
<polyline fill="none" stroke="black" points="563.68,-99.5 1134.17,-99.5 "/>
<text text-anchor="middle" x="668.48" y="-82.9" font-family="Courier New" font-size="14.00">slot</text>
<polyline fill="none" stroke="black" points="563.68,-74.7 773.29,-74.7 "/>
<text text-anchor="middle" x="668.48" y="-58.1" font-family="Courier New" font-size="14.00">0&#45;2</text>
<polyline fill="none" stroke="black" points="773.29,-49.9 773.29,-99.5 "/>
<text text-anchor="middle" x="953.7" y="-82.9" font-family="Courier New" font-size="14.00">type: variable (bytes)</text>
<polyline fill="none" stroke="black" points="773.29,-74.7 1134.12,-74.7 "/>
<text text-anchor="middle" x="953.69" y="-58.1" font-family="Courier New" font-size="14.00">History (96)</text>
</g>
<!-- 6&#45;&gt;5 -->
<g id="edge4" class="edge">
<title>6:31&#45;&gt;5</title>
<path fill="none" stroke="black" d="M527.68,-330.5C609.26,-330.5 505.81,-208.01 563.68,-150.5 564.51,-149.68 565.34,-148.87 566.18,-148.07"/>
<polygon fill="black" stroke="black" points="568.81,-150.42 573.96,-141.16 564.16,-145.18 568.81,-150.42"/>
</g>
<!-- 4 -->
<g id="node5" class="node">
<title>4</title>
<polygon fill="#f2f2f2" stroke="black" points="1170.17,-0.5 1170.17,-124.5 1579.43,-124.5 1579.43,-0.5 1170.17,-0.5"/>
<text text-anchor="middle" x="1374.8" y="-107.9" font-family="Courier New" font-size="14.00">History &lt;&lt;Struct&gt;&gt;</text>
<polyline fill="none" stroke="black" points="1170.17,-99.7 1579.43,-99.7 "/>
<text text-anchor="middle" x="1194.97" y="-83.1" font-family="Courier New" font-size="14.00">slot</text>
<polyline fill="none" stroke="black" points="1170.17,-74.9 1219.78,-74.9 "/>
<text text-anchor="middle" x="1194.97" y="-58.3" font-family="Courier New" font-size="14.00">0</text>
<polyline fill="none" stroke="black" points="1170.17,-50.1 1219.78,-50.1 "/>
<text text-anchor="middle" x="1194.97" y="-33.5" font-family="Courier New" font-size="14.00">1</text>
<polyline fill="none" stroke="black" points="1170.17,-25.3 1219.78,-25.3 "/>
<text text-anchor="middle" x="1194.97" y="-8.7" font-family="Courier New" font-size="14.00">2</text>
<polyline fill="none" stroke="black" points="1219.78,-0.5 1219.78,-99.7 "/>
<text text-anchor="middle" x="1399.6" y="-83.1" font-family="Courier New" font-size="14.00">type: variable (bytes)</text>
<polyline fill="none" stroke="black" points="1219.78,-74.9 1579.43,-74.9 "/>
<text text-anchor="middle" x="1399.59" y="-58.3" font-family="Courier New" font-size="14.00">uint256: lastUpdate (32)</text>
<polyline fill="none" stroke="black" points="1219.78,-50.1 1579.43,-50.1 "/>
<text text-anchor="middle" x="1294.99" y="-33.5" font-family="Courier New" font-size="14.00">unallocated (12)</text>
<polyline fill="none" stroke="black" points="1370.2,-25.3 1370.2,-50.1 "/>
<text text-anchor="middle" x="1474.81" y="-33.5" font-family="Courier New" font-size="14.00">address: updatedBy (20)</text>
<polyline fill="none" stroke="black" points="1219.78,-25.3 1579.43,-25.3 "/>
<text text-anchor="middle" x="1399.29" y="-8.7" font-family="Courier New" font-size="14.00">uint256: blockNumber (32)</text>
</g>
<!-- 5&#45;&gt;4 -->
<g id="edge5" class="edge">
<title>5:27&#45;&gt;4</title>
<path fill="none" stroke="black" d="M1134.17,-62.5C1142.54,-62.5 1151.08,-62.5 1159.7,-62.5"/>
<polygon fill="black" stroke="black" points="1159.86,-66 1169.86,-62.5 1159.86,-59 1159.86,-66"/>
</g>
</g>
</svg>
