<?xml version="1.0" encoding="UTF-8" standalone="no"?>
<!DOCTYPE svg PUBLIC "-//W3C//DTD SVG 1.1//EN"
 "http://www.w3.org/Graphics/SVG/1.1/DTD/svg11.dtd">
<!-- Generated by graphviz version 5.0.0 (20220707.1540)
 -->
<!-- Title: StorageDiagram Pages: 1 -->
<svg width="1596pt" height="732pt"
 viewBox="0.00 0.00 1595.83 732.00" xmlns="http://www.w3.org/2000/svg" xmlns:xlink="http://www.w3.org/1999/xlink">
<g id="graph0" class="graph" transform="scale(1 1) rotate(0) translate(4 728)">
<title>StorageDiagram</title>
<polygon fill="white" stroke="transparent" points="-4,4 -4,-728 1591.83,-728 1591.83,4 -4,4"/>
<!-- 6 -->
<g id="node1" class="node">
<title>6</title>
<polygon fill="#f2f2f2" stroke="black" points="0,-227.5 0,-723.5 536.08,-723.5 536.08,-227.5 0,-227.5"/>
<text text-anchor="middle" x="268.04" y="-706.9" font-family="Courier New" font-size="14.00">GasContract &lt;&lt;Contract&gt;&gt;</text>
<polyline fill="none" stroke="black" points="0,-698.7 536.08,-698.7 "/>
<text text-anchor="middle" x="29" y="-682.1" font-family="Courier New" font-size="14.00">slot</text>
<polyline fill="none" stroke="black" points="0,-673.9 58.01,-673.9 "/>
<text text-anchor="middle" x="29" y="-657.3" font-family="Courier New" font-size="14.00">0</text>
<polyline fill="none" stroke="black" points="0,-649.1 58.01,-649.1 "/>
<text text-anchor="middle" x="29" y="-632.5" font-family="Courier New" font-size="14.00">1</text>
<polyline fill="none" stroke="black" points="0,-624.3 58.01,-624.3 "/>
<text text-anchor="middle" x="29" y="-607.7" font-family="Courier New" font-size="14.00">2</text>
<polyline fill="none" stroke="black" points="0,-599.5 58.01,-599.5 "/>
<text text-anchor="middle" x="29" y="-582.9" font-family="Courier New" font-size="14.00">3</text>
<polyline fill="none" stroke="black" points="0,-574.7 58.01,-574.7 "/>
<text text-anchor="middle" x="29" y="-558.1" font-family="Courier New" font-size="14.00">4</text>
<polyline fill="none" stroke="black" points="0,-549.9 58.01,-549.9 "/>
<text text-anchor="middle" x="29" y="-533.3" font-family="Courier New" font-size="14.00">5</text>
<polyline fill="none" stroke="black" points="0,-525.1 58.01,-525.1 "/>
<text text-anchor="middle" x="29" y="-508.5" font-family="Courier New" font-size="14.00">6</text>
<polyline fill="none" stroke="black" points="0,-500.3 58.01,-500.3 "/>
<text text-anchor="middle" x="29" y="-483.7" font-family="Courier New" font-size="14.00">7</text>
<polyline fill="none" stroke="black" points="0,-475.5 58.01,-475.5 "/>
<text text-anchor="middle" x="29" y="-458.9" font-family="Courier New" font-size="14.00">8</text>
<polyline fill="none" stroke="black" points="0,-450.7 58.01,-450.7 "/>
<text text-anchor="middle" x="29" y="-434.1" font-family="Courier New" font-size="14.00">9</text>
<polyline fill="none" stroke="black" points="0,-425.9 58.01,-425.9 "/>
<text text-anchor="middle" x="29" y="-409.3" font-family="Courier New" font-size="14.00">10</text>
<polyline fill="none" stroke="black" points="0,-401.1 58.01,-401.1 "/>
<text text-anchor="middle" x="29" y="-384.5" font-family="Courier New" font-size="14.00">11</text>
<polyline fill="none" stroke="black" points="0,-376.3 58.01,-376.3 "/>
<text text-anchor="middle" x="29" y="-359.7" font-family="Courier New" font-size="14.00">12</text>
<polyline fill="none" stroke="black" points="0,-351.5 58.01,-351.5 "/>
<text text-anchor="middle" x="29" y="-334.9" font-family="Courier New" font-size="14.00">13&#45;17</text>
<polyline fill="none" stroke="black" points="0,-326.7 58.01,-326.7 "/>
<text text-anchor="middle" x="29" y="-310.1" font-family="Courier New" font-size="14.00">18</text>
<polyline fill="none" stroke="black" points="0,-301.9 58.01,-301.9 "/>
<text text-anchor="middle" x="29" y="-285.3" font-family="Courier New" font-size="14.00">19</text>
<polyline fill="none" stroke="black" points="0,-277.1 58.01,-277.1 "/>
<text text-anchor="middle" x="29" y="-260.5" font-family="Courier New" font-size="14.00">20</text>
<polyline fill="none" stroke="black" points="0,-252.3 58.01,-252.3 "/>
<text text-anchor="middle" x="29" y="-235.7" font-family="Courier New" font-size="14.00">21</text>
<polyline fill="none" stroke="black" points="58.01,-227.5 58.01,-698.7 "/>
<text text-anchor="middle" x="297.04" y="-682.1" font-family="Courier New" font-size="14.00">type: &lt;inherited contract&gt;.variable (bytes)</text>
<polyline fill="none" stroke="black" points="58.01,-673.9 536.08,-673.9 "/>
<text text-anchor="middle" x="152.22" y="-657.3" font-family="Courier New" font-size="14.00">unallocated (12)</text>
<polyline fill="none" stroke="black" points="246.43,-649.1 246.43,-673.9 "/>
<text text-anchor="middle" x="391.05" y="-657.3" font-family="Courier New" font-size="14.00">address: Ownable._owner (20)</text>
<polyline fill="none" stroke="black" points="58.01,-649.1 536.08,-649.1 "/>
<text text-anchor="middle" x="296.63" y="-632.5" font-family="Courier New" font-size="14.00">uint256: Constants.tradeFlag (32)</text>
<polyline fill="none" stroke="black" points="58.01,-624.3 536.08,-624.3 "/>
<text text-anchor="middle" x="296.63" y="-607.7" font-family="Courier New" font-size="14.00">uint256: Constants.basicFlag (32)</text>
<polyline fill="none" stroke="black" points="58.01,-599.5 536.08,-599.5 "/>
<text text-anchor="middle" x="296.73" y="-582.9" font-family="Courier New" font-size="14.00">uint256: Constants.dividendFlag (32)</text>
<polyline fill="none" stroke="black" points="58.01,-574.7 536.08,-574.7 "/>
<text text-anchor="middle" x="297.02" y="-558.1" font-family="Courier New" font-size="14.00">uint256: totalSupply (32)</text>
<polyline fill="none" stroke="black" points="58.01,-549.9 536.08,-549.9 "/>
<text text-anchor="middle" x="296.63" y="-533.3" font-family="Courier New" font-size="14.00">uint256: paymentCounter (32)</text>
<polyline fill="none" stroke="black" points="58.01,-525.1 536.08,-525.1 "/>
<text text-anchor="middle" x="297.03" y="-508.5" font-family="Courier New" font-size="14.00">mapping(address=&gt;uint256): balances (32)</text>
<polyline fill="none" stroke="black" points="58.01,-500.3 536.08,-500.3 "/>
<text text-anchor="middle" x="296.72" y="-483.7" font-family="Courier New" font-size="14.00">uint256: tradePercent (32)</text>
<polyline fill="none" stroke="black" points="58.01,-475.5 536.08,-475.5 "/>
<text text-anchor="middle" x="154.22" y="-458.9" font-family="Courier New" font-size="14.00">unallocated (12)</text>
<polyline fill="none" stroke="black" points="250.43,-450.7 250.43,-475.5 "/>
<text text-anchor="middle" x="392.85" y="-458.9" font-family="Courier New" font-size="14.00">address: contractOwner (20)</text>
<polyline fill="none" stroke="black" points="58.01,-450.7 536.08,-450.7 "/>
<text text-anchor="middle" x="296.62" y="-434.1" font-family="Courier New" font-size="14.00">uint256: tradeMode (32)</text>
<polyline fill="none" stroke="black" points="58.01,-425.9 536.08,-425.9 "/>
<text text-anchor="middle" x="296.73" y="-409.3" font-family="Courier New" font-size="14.00">mapping(address=&gt;uint256): whitelist (32)</text>
<polyline fill="none" stroke="black" points="58.01,-401.1 536.08,-401.1 "/>
<text text-anchor="middle" x="296.82" y="-384.5" font-family="Courier New" font-size="14.00">uint256: wasLastOdd (32)</text>
<polyline fill="none" stroke="black" points="58.01,-376.3 536.08,-376.3 "/>
<text text-anchor="middle" x="297.04" y="-359.7" font-family="Courier New" font-size="14.00">mapping(address=&gt;uint256): isOddWhitelistUser (32)</text>
<polyline fill="none" stroke="black" points="58.01,-351.5 536.08,-351.5 "/>
<text text-anchor="middle" x="296.93" y="-334.9" font-family="Courier New" font-size="14.00">address[5]: administrators (160)</text>
<polyline fill="none" stroke="black" points="58.01,-326.7 536.08,-326.7 "/>
<text text-anchor="middle" x="175.22" y="-310.1" font-family="Courier New" font-size="14.00">unallocated (31)</text>
<polyline fill="none" stroke="black" points="292.43,-301.9 292.43,-326.7 "/>
<text text-anchor="middle" x="413.84" y="-310.1" font-family="Courier New" font-size="14.00">bool: isReady (1)</text>
<polyline fill="none" stroke="black" points="58.01,-301.9 536.08,-301.9 "/>
<text text-anchor="middle" x="296.94" y="-285.3" font-family="Courier New" font-size="14.00">mapping(address=&gt;Payment[]): payments (32)</text>
<polyline fill="none" stroke="black" points="58.01,-277.1 536.08,-277.1 "/>
<text text-anchor="middle" x="297.03" y="-260.5" font-family="Courier New" font-size="14.00">History[]: paymentHistory (32)</text>
<polyline fill="none" stroke="black" points="58.01,-252.3 536.08,-252.3 "/>
<text text-anchor="middle" x="297.04" y="-235.7" font-family="Courier New" font-size="14.00">mapping(address=&gt;ImportantStruct): whiteListStruct (32)</text>
</g>
<!-- 1 -->
<g id="node2" class="node">
<title>1</title>
<polygon fill="#f2f2f2" stroke="black" points="698.1,-495.7 698.1,-669.3 1016.55,-669.3 1016.55,-495.7 698.1,-495.7"/>
<text text-anchor="middle" x="857.33" y="-652.7" font-family="Courier New" font-size="14.00">address[5]: administrators &lt;&lt;Array&gt;&gt;</text>
<polyline fill="none" stroke="black" points="698.1,-644.5 1016.55,-644.5 "/>
<text text-anchor="middle" x="722.91" y="-627.9" font-family="Courier New" font-size="14.00">slot</text>
<polyline fill="none" stroke="black" points="698.1,-619.7 747.71,-619.7 "/>
<text text-anchor="middle" x="722.91" y="-603.1" font-family="Courier New" font-size="14.00">13</text>
<polyline fill="none" stroke="black" points="698.1,-594.9 747.71,-594.9 "/>
<text text-anchor="middle" x="722.91" y="-578.3" font-family="Courier New" font-size="14.00">14</text>
<polyline fill="none" stroke="black" points="698.1,-570.1 747.71,-570.1 "/>
<text text-anchor="middle" x="722.91" y="-553.5" font-family="Courier New" font-size="14.00">15</text>
<polyline fill="none" stroke="black" points="698.1,-545.3 747.71,-545.3 "/>
<text text-anchor="middle" x="722.91" y="-528.7" font-family="Courier New" font-size="14.00">16</text>
<polyline fill="none" stroke="black" points="698.1,-520.5 747.71,-520.5 "/>
<text text-anchor="middle" x="722.91" y="-503.9" font-family="Courier New" font-size="14.00">17</text>
<polyline fill="none" stroke="black" points="747.71,-495.7 747.71,-644.5 "/>
<text text-anchor="middle" x="881.83" y="-627.9" font-family="Courier New" font-size="14.00">type: variable (bytes)</text>
<polyline fill="none" stroke="black" points="747.71,-619.7 1015.95,-619.7 "/>
<text text-anchor="middle" x="822.92" y="-603.1" font-family="Courier New" font-size="14.00">unallocated (12)</text>
<polyline fill="none" stroke="black" points="898.13,-594.9 898.13,-619.7 "/>
<text text-anchor="middle" x="957.04" y="-603.1" font-family="Courier New" font-size="14.00">address (20)</text>
<polyline fill="none" stroke="black" points="747.71,-594.9 1015.95,-594.9 "/>
<text text-anchor="middle" x="822.92" y="-578.3" font-family="Courier New" font-size="14.00">unallocated (12)</text>
<polyline fill="none" stroke="black" points="898.13,-570.1 898.13,-594.9 "/>
<text text-anchor="middle" x="957.04" y="-578.3" font-family="Courier New" font-size="14.00">address (20)</text>
<polyline fill="none" stroke="black" points="747.71,-570.1 1015.95,-570.1 "/>
<text text-anchor="middle" x="822.92" y="-553.5" font-family="Courier New" font-size="14.00">unallocated (12)</text>
<polyline fill="none" stroke="black" points="898.13,-545.3 898.13,-570.1 "/>
<text text-anchor="middle" x="957.04" y="-553.5" font-family="Courier New" font-size="14.00">address (20)</text>
<polyline fill="none" stroke="black" points="747.71,-545.3 1015.95,-545.3 "/>
<text text-anchor="middle" x="822.92" y="-528.7" font-family="Courier New" font-size="14.00">unallocated (12)</text>
<polyline fill="none" stroke="black" points="898.13,-520.5 898.13,-545.3 "/>
<text text-anchor="middle" x="957.04" y="-528.7" font-family="Courier New" font-size="14.00">address (20)</text>
<polyline fill="none" stroke="black" points="747.71,-520.5 1015.95,-520.5 "/>
<text text-anchor="middle" x="822.92" y="-503.9" font-family="Courier New" font-size="14.00">unallocated (12)</text>
<polyline fill="none" stroke="black" points="898.13,-495.7 898.13,-520.5 "/>
<text text-anchor="middle" x="957.04" y="-503.9" font-family="Courier New" font-size="14.00">address (20)</text>
</g>
<!-- 6&#45;&gt;1 -->
<g id="edge1" class="edge">
<title>6:19&#45;&gt;1</title>
<path fill="none" stroke="black" d="M536.08,-339.5C603.35,-339.5 526.6,-436.95 572.08,-486.5 602.7,-519.86 645.3,-541.63 688.21,-555.84"/>
<polygon fill="black" stroke="black" points="687.35,-559.24 697.95,-558.93 689.48,-552.57 687.35,-559.24"/>
</g>
<!-- 2 -->
<g id="node3" class="node">
<title>2</title>
<polygon fill="#f2f2f2" stroke="black" points="631.69,-253.9 631.69,-477.1 1082.96,-477.1 1082.96,-253.9 631.69,-253.9"/>
<text text-anchor="middle" x="857.33" y="-460.5" font-family="Courier New" font-size="14.00">Payment &lt;&lt;Struct&gt;&gt;</text>
<polyline fill="none" stroke="black" points="631.69,-452.3 1082.96,-452.3 "/>
<text text-anchor="middle" x="656.5" y="-435.7" font-family="Courier New" font-size="14.00">slot</text>
<polyline fill="none" stroke="black" points="631.69,-427.5 681.3,-427.5 "/>
<text text-anchor="middle" x="656.5" y="-410.9" font-family="Courier New" font-size="14.00">0</text>
<polyline fill="none" stroke="black" points="631.69,-402.7 681.3,-402.7 "/>
<text text-anchor="middle" x="656.5" y="-386.1" font-family="Courier New" font-size="14.00">1</text>
<polyline fill="none" stroke="black" points="631.69,-377.9 681.3,-377.9 "/>
<text text-anchor="middle" x="656.5" y="-361.3" font-family="Courier New" font-size="14.00">2</text>
<polyline fill="none" stroke="black" points="631.69,-353.1 681.3,-353.1 "/>
<text text-anchor="middle" x="656.5" y="-336.5" font-family="Courier New" font-size="14.00">3</text>
<polyline fill="none" stroke="black" points="631.69,-328.3 681.3,-328.3 "/>
<text text-anchor="middle" x="656.5" y="-311.7" font-family="Courier New" font-size="14.00">4</text>
<polyline fill="none" stroke="black" points="631.69,-303.5 681.3,-303.5 "/>
<text text-anchor="middle" x="656.5" y="-286.9" font-family="Courier New" font-size="14.00">5</text>
<polyline fill="none" stroke="black" points="631.69,-278.7 681.3,-278.7 "/>
<text text-anchor="middle" x="656.5" y="-262.1" font-family="Courier New" font-size="14.00">6</text>
<polyline fill="none" stroke="black" points="681.3,-253.9 681.3,-452.3 "/>
<text text-anchor="middle" x="882.13" y="-435.7" font-family="Courier New" font-size="14.00">type: variable (bytes)</text>
<polyline fill="none" stroke="black" points="681.3,-427.5 1082.96,-427.5 "/>
<text text-anchor="middle" x="756.51" y="-410.9" font-family="Courier New" font-size="14.00">unallocated (31)</text>
<polyline fill="none" stroke="black" points="831.72,-402.7 831.72,-427.5 "/>
<text text-anchor="middle" x="957.34" y="-410.9" font-family="Courier New" font-size="14.00">PaymentType: paymentType (1)</text>
<polyline fill="none" stroke="black" points="681.3,-402.7 1082.96,-402.7 "/>
<text text-anchor="middle" x="881.92" y="-386.1" font-family="Courier New" font-size="14.00">uint256: paymentID (32)</text>
<polyline fill="none" stroke="black" points="681.3,-377.9 1082.96,-377.9 "/>
<text text-anchor="middle" x="769.01" y="-361.3" font-family="Courier New" font-size="14.00">unallocated (31)</text>
<polyline fill="none" stroke="black" points="856.72,-353.1 856.72,-377.9 "/>
<text text-anchor="middle" x="969.64" y="-361.3" font-family="Courier New" font-size="14.00">bool: adminUpdated (1)</text>
<polyline fill="none" stroke="black" points="681.3,-353.1 1082.96,-353.1 "/>
<text text-anchor="middle" x="882.02" y="-336.5" font-family="Courier New" font-size="14.00">string: recipientName (32)</text>
<polyline fill="none" stroke="black" points="681.3,-328.3 1082.96,-328.3 "/>
<text text-anchor="middle" x="767.01" y="-311.7" font-family="Courier New" font-size="14.00">unallocated (12)</text>
<polyline fill="none" stroke="black" points="852.72,-303.5 852.72,-328.3 "/>
<text text-anchor="middle" x="967.84" y="-311.7" font-family="Courier New" font-size="14.00">address: recipient (20)</text>
<polyline fill="none" stroke="black" points="681.3,-303.5 1082.96,-303.5 "/>
<text text-anchor="middle" x="775.01" y="-286.9" font-family="Courier New" font-size="14.00">unallocated (12)</text>
<polyline fill="none" stroke="black" points="868.72,-278.7 868.72,-303.5 "/>
<text text-anchor="middle" x="975.53" y="-286.9" font-family="Courier New" font-size="14.00">address: admin (20)</text>
<polyline fill="none" stroke="black" points="681.3,-278.7 1082.96,-278.7 "/>
<text text-anchor="middle" x="881.81" y="-262.1" font-family="Courier New" font-size="14.00">uint256: amount (32)</text>
</g>
<!-- 6&#45;&gt;2 -->
<g id="edge2" class="edge">
<title>6:28&#45;&gt;2</title>
<path fill="none" stroke="black" d="M536.08,-289.5C563.94,-289.5 592.8,-292.26 621.27,-296.72"/>
<polygon fill="black" stroke="black" points="620.89,-300.2 631.33,-298.37 622.03,-293.3 620.89,-300.2"/>
</g>
<!-- 4 -->
<g id="node5" class="node">
<title>4</title>
<polygon fill="#f2f2f2" stroke="black" points="572.08,-143.9 572.08,-235.1 1142.57,-235.1 1142.57,-143.9 572.08,-143.9"/>
<text text-anchor="middle" x="857.33" y="-218.5" font-family="Courier New" font-size="14.00">History[]: paymentHistory &lt;&lt;Array&gt;&gt;</text>
<text text-anchor="middle" x="857.33" y="-201.7" font-family="Courier New" font-size="14.00">0x695edec20c81c3eabbc5d369954619cf25de11b49616776ec704bb3d58444c35</text>
<polyline fill="none" stroke="black" points="572.08,-193.5 1142.57,-193.5 "/>
<text text-anchor="middle" x="676.88" y="-176.9" font-family="Courier New" font-size="14.00">slot</text>
<polyline fill="none" stroke="black" points="572.08,-168.7 781.69,-168.7 "/>
<text text-anchor="middle" x="676.88" y="-152.1" font-family="Courier New" font-size="14.00">0&#45;2</text>
<polyline fill="none" stroke="black" points="781.69,-143.9 781.69,-193.5 "/>
<text text-anchor="middle" x="962.1" y="-176.9" font-family="Courier New" font-size="14.00">type: variable (bytes)</text>
<polyline fill="none" stroke="black" points="781.69,-168.7 1142.52,-168.7 "/>
<text text-anchor="middle" x="962.1" y="-152.1" font-family="Courier New" font-size="14.00">History (96)</text>
</g>
<!-- 6&#45;&gt;4 -->
<g id="edge3" class="edge">
<title>6:33&#45;&gt;4</title>
<path fill="none" stroke="black" d="M536.08,-264.5C554.39,-264.5 554.88,-250.76 572.08,-244.5 578.05,-242.33 584.12,-240.24 590.27,-238.22"/>
<polygon fill="black" stroke="black" points="591.53,-241.49 599.99,-235.12 589.4,-234.83 591.53,-241.49"/>
</g>
<!-- 5 -->
<g id="node6" class="node">
<title>5</title>
<polygon fill="#f2f2f2" stroke="black" points="732.11,-0.5 732.11,-124.5 982.54,-124.5 982.54,-0.5 732.11,-0.5"/>
<text text-anchor="middle" x="857.33" y="-107.9" font-family="Courier New" font-size="14.00">ImportantStruct &lt;&lt;Struct&gt;&gt;</text>
<polyline fill="none" stroke="black" points="732.11,-99.7 982.54,-99.7 "/>
<text text-anchor="middle" x="756.91" y="-83.1" font-family="Courier New" font-size="14.00">slot</text>
<polyline fill="none" stroke="black" points="732.11,-74.9 781.71,-74.9 "/>
<text text-anchor="middle" x="756.91" y="-58.3" font-family="Courier New" font-size="14.00">0</text>
<polyline fill="none" stroke="black" points="732.11,-50.1 781.71,-50.1 "/>
<text text-anchor="middle" x="756.91" y="-33.5" font-family="Courier New" font-size="14.00">1</text>
<polyline fill="none" stroke="black" points="732.11,-25.3 781.71,-25.3 "/>
<text text-anchor="middle" x="756.91" y="-8.7" font-family="Courier New" font-size="14.00">2</text>
<polyline fill="none" stroke="black" points="781.71,-0.5 781.71,-99.7 "/>
<text text-anchor="middle" x="882.13" y="-83.1" font-family="Courier New" font-size="14.00">type: variable (bytes)</text>
<polyline fill="none" stroke="black" points="781.71,-74.9 982.54,-74.9 "/>
<text text-anchor="middle" x="881.73" y="-58.3" font-family="Courier New" font-size="14.00">uint256: valueA (32)</text>
<polyline fill="none" stroke="black" points="781.71,-50.1 982.54,-50.1 "/>
<text text-anchor="middle" x="882.13" y="-33.5" font-family="Courier New" font-size="14.00">uint256: bigValue (32)</text>
<polyline fill="none" stroke="black" points="781.71,-25.3 982.54,-25.3 "/>
<text text-anchor="middle" x="881.73" y="-8.7" font-family="Courier New" font-size="14.00">uint256: valueB (32)</text>
</g>
<!-- 6&#45;&gt;5 -->
<g id="edge4" class="edge">
<title>6:37&#45;&gt;5</title>
<path fill="none" stroke="black" d="M536.08,-239.5C585.42,-239.5 535.79,-167.92 572.08,-134.5 612.54,-97.24 669.47,-78.61 721.77,-69.51"/>
<polygon fill="black" stroke="black" points="722.51,-72.94 731.82,-67.87 721.38,-66.03 722.51,-72.94"/>
</g>
<!-- 3 -->
<g id="node4" class="node">
<title>3</title>
<polygon fill="#f2f2f2" stroke="black" points="1178.57,-94.5 1178.57,-218.5 1587.83,-218.5 1587.83,-94.5 1178.57,-94.5"/>
<text text-anchor="middle" x="1383.2" y="-201.9" font-family="Courier New" font-size="14.00">History &lt;&lt;Struct&gt;&gt;</text>
<polyline fill="none" stroke="black" points="1178.57,-193.7 1587.83,-193.7 "/>
<text text-anchor="middle" x="1203.38" y="-177.1" font-family="Courier New" font-size="14.00">slot</text>
<polyline fill="none" stroke="black" points="1178.57,-168.9 1228.18,-168.9 "/>
<text text-anchor="middle" x="1203.38" y="-152.3" font-family="Courier New" font-size="14.00">0</text>
<polyline fill="none" stroke="black" points="1178.57,-144.1 1228.18,-144.1 "/>
<text text-anchor="middle" x="1203.38" y="-127.5" font-family="Courier New" font-size="14.00">1</text>
<polyline fill="none" stroke="black" points="1178.57,-119.3 1228.18,-119.3 "/>
<text text-anchor="middle" x="1203.38" y="-102.7" font-family="Courier New" font-size="14.00">2</text>
<polyline fill="none" stroke="black" points="1228.18,-94.5 1228.18,-193.7 "/>
<text text-anchor="middle" x="1408" y="-177.1" font-family="Courier New" font-size="14.00">type: variable (bytes)</text>
<polyline fill="none" stroke="black" points="1228.18,-168.9 1587.83,-168.9 "/>
<text text-anchor="middle" x="1407.99" y="-152.3" font-family="Courier New" font-size="14.00">uint256: lastUpdate (32)</text>
<polyline fill="none" stroke="black" points="1228.18,-144.1 1587.83,-144.1 "/>
<text text-anchor="middle" x="1303.39" y="-127.5" font-family="Courier New" font-size="14.00">unallocated (12)</text>
<polyline fill="none" stroke="black" points="1378.6,-119.3 1378.6,-144.1 "/>
<text text-anchor="middle" x="1483.22" y="-127.5" font-family="Courier New" font-size="14.00">address: updatedBy (20)</text>
<polyline fill="none" stroke="black" points="1228.18,-119.3 1587.83,-119.3 "/>
<text text-anchor="middle" x="1407.69" y="-102.7" font-family="Courier New" font-size="14.00">uint256: blockNumber (32)</text>
</g>
<!-- 4&#45;&gt;3 -->
<g id="edge5" class="edge">
<title>4:29&#45;&gt;3</title>
<path fill="none" stroke="black" d="M1142.57,-156.5C1150.94,-156.5 1159.48,-156.5 1168.11,-156.5"/>
<polygon fill="black" stroke="black" points="1168.26,-160 1178.26,-156.5 1168.26,-153 1168.26,-160"/>
</g>
</g>
</svg>
